REM DIRINDEX 1\2,1\3,1\4,1\5\6,1\5\7,1\8
REM DIRNAME cjc115,folder01,folder02,folder03,folder04,folder05,folder06,folder07
TITLE ""
FILE "169 【169】Unit10 (1909 the other way around_1920 make for ～).mp3" MP3
  TRACK 01 AUDIO
    TITLE "0:"
    INDEX 01 00:00:00
  TRACK 02 AUDIO
    TITLE "2:cjc115_6610"
    INDEX 01 00:00:03
  TRACK 03 AUDIO
    TITLE "0:"
    INDEX 01 00:01:69
  TRACK 04 AUDIO
    TITLE "3:cjc115_6611"
    INDEX 01 00:02:02
  TRACK 05 AUDIO
    TITLE "0:"
    INDEX 01 00:03:51
  TRACK 06 AUDIO
    TITLE "4:cjc115_6612"
    INDEX 01 00:03:53
  TRACK 07 AUDIO
    TITLE "0:"
    INDEX 01 00:08:42
  TRACK 08 AUDIO
    TITLE "2:cjc115_6613"
    INDEX 01 00:09:49
  TRACK 09 AUDIO
    TITLE "0:"
    INDEX 01 00:11:25
  TRACK 10 AUDIO
    TITLE "3:cjc115_6614"
    INDEX 01 00:11:31
  TRACK 11 AUDIO
    TITLE "0:"
    INDEX 01 00:14:00
  TRACK 12 AUDIO
    TITLE "4:cjc115_6615"
    INDEX 01 00:14:07
  TRACK 13 AUDIO
    TITLE "0:"
    INDEX 01 00:17:16
  TRACK 14 AUDIO
    TITLE "2:cjc115_6616"
    INDEX 01 00:18:25
  TRACK 15 AUDIO
    TITLE "0:"
    INDEX 01 00:19:71
  TRACK 16 AUDIO
    TITLE "3:cjc115_6617"
    INDEX 01 00:20:04
  TRACK 17 AUDIO
    TITLE "0:"
    INDEX 01 00:22:66
  TRACK 18 AUDIO
    TITLE "4:cjc115_6618"
    INDEX 01 00:23:03
  TRACK 19 AUDIO
    TITLE "0:"
    INDEX 01 00:26:52
  TRACK 20 AUDIO
    TITLE "2:cjc115_6619"
    INDEX 01 00:27:59
  TRACK 21 AUDIO
    TITLE "0:"
    INDEX 01 00:29:19
  TRACK 22 AUDIO
    TITLE "3:cjc115_6620"
    INDEX 01 00:29:25
  TRACK 23 AUDIO
    TITLE "0:"
    INDEX 01 00:34:47
  TRACK 24 AUDIO
    TITLE "4:cjc115_6621"
    INDEX 01 00:34:57
  TRACK 25 AUDIO
    TITLE "0:"
    INDEX 01 00:38:45
  TRACK 26 AUDIO
    TITLE "2:cjc115_6622"
    INDEX 01 00:39:52
  TRACK 27 AUDIO
    TITLE "0:"
    INDEX 01 00:41:18
  TRACK 28 AUDIO
    TITLE "3:cjc115_6623"
    INDEX 01 00:41:28
  TRACK 29 AUDIO
    TITLE "0:"
    INDEX 01 00:42:68
  TRACK 30 AUDIO
    TITLE "4:cjc115_6624"
    INDEX 01 00:43:03
  TRACK 31 AUDIO
    TITLE "0:"
    INDEX 01 00:45:61
  TRACK 32 AUDIO
    TITLE "2:cjc115_6625"
    INDEX 01 00:47:05
  TRACK 33 AUDIO
    TITLE "0:"
    INDEX 01 00:48:28
  TRACK 34 AUDIO
    TITLE "3:cjc115_6626"
    INDEX 01 00:48:38
  TRACK 35 AUDIO
    TITLE "0:"
    INDEX 01 00:51:69
  TRACK 36 AUDIO
    TITLE "4:cjc115_6627"
    INDEX 01 00:51:73
  TRACK 37 AUDIO
    TITLE "0:"
    INDEX 01 00:55:06
  TRACK 38 AUDIO
    TITLE "2:cjc115_6628"
    INDEX 01 00:56:14
  TRACK 39 AUDIO
    TITLE "0:"
    INDEX 01 00:57:31
  TRACK 40 AUDIO
    TITLE "3:cjc115_6629"
    INDEX 01 00:57:41
  TRACK 41 AUDIO
    TITLE "0:"
    INDEX 01 01:00:21
  TRACK 42 AUDIO
    TITLE "4:cjc115_6630"
    INDEX 01 01:00:29
  TRACK 43 AUDIO
    TITLE "0:"
    INDEX 01 01:03:65
  TRACK 44 AUDIO
    TITLE "2:cjc115_6631"
    INDEX 01 01:04:72
  TRACK 45 AUDIO
    TITLE "0:"
    INDEX 01 01:06:47
  TRACK 46 AUDIO
    TITLE "3:cjc115_6632"
    INDEX 01 01:06:57
  TRACK 47 AUDIO
    TITLE "0:"
    INDEX 01 01:10:67
  TRACK 48 AUDIO
    TITLE "4:cjc115_6633"
    INDEX 01 01:10:71
  TRACK 49 AUDIO
    TITLE "0:"
    INDEX 01 01:15:21
  TRACK 50 AUDIO
    TITLE "2:cjc115_6634"
    INDEX 01 01:16:26
  TRACK 51 AUDIO
    TITLE "0:"
    INDEX 01 01:17:65
  TRACK 52 AUDIO
    TITLE "3:cjc115_6635"
    INDEX 01 01:17:73
  TRACK 53 AUDIO
    TITLE "0:"
    INDEX 01 01:20:48
  TRACK 54 AUDIO
    TITLE "4:cjc115_6636"
    INDEX 01 01:20:57
  TRACK 55 AUDIO
    TITLE "0:"
    INDEX 01 01:24:10
  TRACK 56 AUDIO
    TITLE "2:cjc115_6637"
    INDEX 01 01:25:19
  TRACK 57 AUDIO
    TITLE "0:"
    INDEX 01 01:26:48
  TRACK 58 AUDIO
    TITLE "3:cjc115_6638"
    INDEX 01 01:26:58
  TRACK 59 AUDIO
    TITLE "0:"
    INDEX 01 01:29:56
  TRACK 60 AUDIO
    TITLE "4:cjc115_6639"
    INDEX 01 01:29:62
  TRACK 61 AUDIO
    TITLE "0:"
    INDEX 01 01:34:38
  TRACK 62 AUDIO
    TITLE "2:cjc115_6640"
    INDEX 01 01:35:47
  TRACK 63 AUDIO
    TITLE "0:"
    INDEX 01 01:37:17
  TRACK 64 AUDIO
    TITLE "3:cjc115_6641"
    INDEX 01 01:37:24
  TRACK 65 AUDIO
    TITLE "0:"
    INDEX 01 01:42:16
  TRACK 66 AUDIO
    TITLE "4:cjc115_6642"
    INDEX 01 01:42:18
  TRACK 67 AUDIO
    TITLE "0:"
    INDEX 01 01:46:10
  TRACK 68 AUDIO
    TITLE "2:cjc115_6643"
    INDEX 01 01:47:17
  TRACK 69 AUDIO
    TITLE "0:"
    INDEX 01 01:48:44
  TRACK 70 AUDIO
    TITLE "3:cjc115_6644"
    INDEX 01 01:48:52
  TRACK 71 AUDIO
    TITLE "0:"
    INDEX 01 01:50:02
  TRACK 72 AUDIO
    TITLE "4:cjc115_6645"
    INDEX 01 01:50:11
  TRACK 73 AUDIO
    TITLE "0:"
    INDEX 01 01:53:65
